<?xml version="1.0" encoding="utf-8"?>
<!-- Generator: Adobe Illustrator 22.0.0, SVG Export Plug-In . SVG Version: 6.00 Build 0)  -->
<svg version="1.1" id="Layer_1" xmlns="http://www.w3.org/2000/svg" xmlns:xlink="http://www.w3.org/1999/xlink" x="0px" y="0px"
	 viewBox="0 0 139.8 41.2" style="enable-background:new 0 0 139.8 41.2;" xml:space="preserve">
<style type="text/css">
	.st0{fill:#0A2240;}
	.st1{fill:#FFCD00;}
	.st2{opacity:0.5;}
	.st3{fill:url(#SVGID_1_);}
	.st4{fill:url(#SVGID_2_);}
	.st5{fill:url(#SVGID_3_);}
</style>
<image style="overflow:visible;" width="140" height="41" xlink:href="logo-dark.png"  transform="matrix(1 0 0 1 -36.5833 -51.1521)">
</image>
<g>
	<g>
		<g>
			<path class="st0" d="M10.7,15.4l-1,3H15l-1.3,3.9H8.4l-1,3h5.5l-1.3,3.9H1.5l5.9-17.7h10.1l-1.3,3.9H10.7z"/>
			<path class="st0" d="M20,11.5h5.7l1.2,4.6l4.3-4.6h5.7l-8.5,8.2l3.3,9.4H26l-1.7-5.8l-6,5.8h-5.6l10.2-9.4L20,11.5z"/>
			<path class="st0" d="M54.5,11.5L51,21.5c-0.8,2.3-1.7,4.5-4.1,6.2c-2,1.5-4.5,2-6.5,2c-2.1,0-4.2-0.5-5.2-2
				c-1.2-1.7-0.5-4,0.3-6.2l3.5-9.9h4.6l-3.3,9.3c-0.8,2.3-1.5,4.8,1.4,4.8c3,0,4-2.5,4.8-4.8l3.3-9.3H54.5z"/>
			<path class="st0" d="M57.4,11.5h7.1c3.8,0,5.9,1.8,4.4,5.8c-1.5,4.2-4.4,6-8.4,6h-2.6l-2.1,5.9h-4.6L57.4,11.5z M59.2,19.6h0.8
				c1.7,0,3.3,0,4.1-2.2c0.8-2.2-0.7-2.3-2.5-2.3h-0.8L59.2,19.6z"/>
			<path class="st0" d="M76.2,15.4l-1.1,3h5.2l-1.4,3.9h-5.2l-1.1,3h5.5l-1.4,3.9H66.6L73,11.5h10.1l-1.4,3.9H76.2z"/>
			<path class="st0" d="M94.2,29.2h-5.7l-1.8-6.8h0l-2.5,6.8h-4.6L86,11.5h6.9c3.5,0,5.6,1.7,4.2,5.4c-0.9,2.4-3.1,4.5-5.8,5
				L94.2,29.2z M87.7,19.4h0.4c1.5,0,3.3-0.3,4-2.2c0.7-1.9-0.9-2.2-2.4-2.2h-0.4L87.7,19.4z"/>
			<path class="st0" d="M99.2,11.5h5.5l1.5,4.8l5.1-4.8h5.5l-10,9.2l-3.2,8.5h-4.6l3.2-8.5L99.2,11.5z"/>
		</g>
	</g>
	<g>
		<g>
			<path class="st1" d="M135.7,18L135.7,18C135.7,18,135.7,18,135.7,18C135.7,18,135.7,18,135.7,18l-5.6,0l0,0c-6.5,0-13,0-13,0
				l-1.8,4.7c0,0,7.7,0,14,0c0,0,0.3,0,0.3,0l0,0C130.6,22.7,133.9,22.2,135.7,18z"/>
			<path class="st1" d="M127.7,24.5L127.7,24.5l-13.1,0l-1.8,4.7h14.1c0,0,0.1,0,0.3,0c1,0,4.3-0.5,6.1-4.7v0H127.7z"/>
			<path class="st1" d="M132.7,11.5h-8.6c-0.8,0-4.3,0.3-6.3,4.7c0,0,0,0,0,0h12l-6.4,0c0,0,8.6,0,8.8,0c1,0,4.3-0.5,6.1-4.7H132.7z
				"/>
		</g>
		<g class="st2">
			<linearGradient id="SVGID_1_" gradientUnits="userSpaceOnUse" x1="127.8718" y1="12.0488" x2="121.0096" y2="36.3608">
				<stop  offset="0" style="stop-color:#FFFFFF"/>
				<stop  offset="1" style="stop-color:#666666"/>
			</linearGradient>
			<path class="st3" d="M135.7,18L135.7,18C135.7,18,135.7,18,135.7,18C135.7,18,135.7,18,135.7,18l-5.6,0l0,0c-6.5,0-13,0-13,0
				l-1.8,4.7c0,0,7.7,0,14,0c0,0,0.3,0,0.3,0l0,0C130.6,22.7,133.9,22.2,135.7,18z"/>
			<linearGradient id="SVGID_2_" gradientUnits="userSpaceOnUse" x1="127.2977" y1="11.8871" x2="120.4355" y2="36.1987">
				<stop  offset="0" style="stop-color:#FFFFFF"/>
				<stop  offset="1" style="stop-color:#666666"/>
			</linearGradient>
			<path class="st4" d="M127.7,24.5L127.7,24.5l-13.1,0l-1.8,4.7h14.1c0,0,0.1,0,0.3,0c1,0,4.3-0.5,6.1-4.7v0H127.7z"/>
			<linearGradient id="SVGID_3_" gradientUnits="userSpaceOnUse" x1="128.5487" y1="12.24" x2="121.6865" y2="36.5516">
				<stop  offset="0" style="stop-color:#FFFFFF"/>
				<stop  offset="1" style="stop-color:#666666"/>
			</linearGradient>
			<path class="st5" d="M132.7,11.5h-8.6c-0.8,0-4.3,0.3-6.3,4.7c0,0,0,0,0,0h12l-6.4,0c0,0,8.6,0,8.8,0c1,0,4.3-0.5,6.1-4.7H132.7z
				"/>
		</g>
		<path class="st1" d="M129.6,22.7"/>
	</g>
</g>
</svg>
